<svg width="686" height="42" viewBox="0 0 686 42" fill="none" xmlns="http://www.w3.org/2000/svg">
<rect x="461.494" width="10.3881" height="41.5979" rx="5.19404" fill="#6FCF97"/>
<path d="M476.037 17.9619C476.037 15.3517 478.153 13.2357 480.763 13.2357V13.2357C483.373 13.2357 485.489 15.3517 485.489 17.9619V28.582C485.489 31.1922 483.373 33.3082 480.763 33.3082V33.3082C478.153 33.3082 476.037 31.1922 476.037 28.582V17.9619Z" fill="#27AE60"/>
<rect x="476.037" y="1.89084" width="9.45234" height="10.0362" rx="4.72617" fill="#27AE60"/>
<rect x="489.817" y="15.5574" width="9.45234" height="10.0362" rx="4.72617" fill="#6FCF97"/>
<path d="M522.704 30.838V13.7353H529.037C530.422 13.7353 531.541 13.9233 532.396 14.2994C533.268 14.6755 533.909 15.2139 534.319 15.9148C534.729 16.5986 534.935 17.4191 534.935 18.3764C534.935 19.1285 534.789 19.7353 534.499 20.1969C534.208 20.6413 533.858 21.0003 533.447 21.2738C533.054 21.5473 532.678 21.8037 532.319 22.0431L531.986 21.4533C532.635 21.573 533.259 21.8123 533.858 22.1713C534.456 22.5131 534.943 22.9918 535.319 23.6072C535.712 24.2055 535.909 24.9576 535.909 25.8636C535.909 27.026 535.644 27.9747 535.114 28.7098C534.584 29.4448 533.84 29.9833 532.883 30.3252C531.943 30.6671 530.858 30.838 529.627 30.838H522.704ZM525.55 28.479H529.601C530.199 28.479 530.755 28.4106 531.268 28.2739C531.798 28.12 532.217 27.8465 532.524 27.4534C532.849 27.0431 533.011 26.4704 533.011 25.7354C533.011 25.1713 532.909 24.7183 532.704 24.3764C532.499 24.0345 532.225 23.7781 531.883 23.6072C531.558 23.4191 531.182 23.2995 530.755 23.2482C530.345 23.1798 529.934 23.1456 529.524 23.1456H525.55V28.479ZM525.524 20.8636H529.37C529.815 20.8636 530.242 20.8123 530.652 20.7097C531.063 20.5901 531.405 20.3678 531.678 20.043C531.952 19.7182 532.088 19.2396 532.088 18.6071C532.088 17.6499 531.815 17.0003 531.268 16.6584C530.738 16.2994 530.028 16.1199 529.14 16.1199H525.524V20.8636ZM543.819 31.2226C543.152 31.2226 542.511 31.1543 541.896 31.0175C541.28 30.8978 540.716 30.6842 540.203 30.3765C539.708 30.0688 539.306 29.65 538.998 29.12C538.708 28.573 538.562 27.8978 538.562 27.0944C538.562 26.1371 538.75 25.3508 539.126 24.7354C539.503 24.12 540.041 23.6585 540.742 23.3508C541.443 23.0431 542.28 22.8892 543.255 22.8892C543.904 22.8892 544.485 22.9405 544.998 23.0431C545.528 23.1456 545.998 23.2909 546.409 23.479C546.836 23.6499 547.195 23.8465 547.486 24.0687L547.768 25.838C547.392 25.5816 546.887 25.3679 546.255 25.1969C545.622 25.0089 544.938 24.9149 544.203 24.9149C543.229 24.9149 542.485 25.0858 541.973 25.4277C541.477 25.7696 541.229 26.2824 541.229 26.9662C541.229 27.479 541.374 27.8978 541.665 28.2226C541.956 28.5303 542.315 28.7611 542.742 28.9149C543.186 29.0517 543.648 29.12 544.127 29.12C545.135 29.12 545.879 29.0517 546.357 28.9149C546.836 28.7782 547.075 28.4619 547.075 27.9662V22.5815C547.075 21.6755 546.802 21.0174 546.255 20.6071C545.708 20.1798 544.93 19.9661 543.921 19.9661C543.203 19.9661 542.46 20.0858 541.691 20.3251C540.921 20.5473 540.289 20.8636 539.793 21.2738V18.761C540.272 18.4362 540.964 18.1798 541.87 17.9917C542.793 17.7866 543.742 17.684 544.716 17.684C545.195 17.684 545.674 17.7353 546.152 17.8379C546.648 17.9234 547.109 18.0687 547.537 18.2738C547.964 18.4618 548.34 18.7268 548.665 19.0687C549.007 19.3935 549.272 19.7952 549.46 20.2738C549.648 20.7524 549.742 21.3166 549.742 21.9661V28.12C549.742 28.9577 549.477 29.6072 548.947 30.0688C548.434 30.5132 547.733 30.8124 546.844 30.9662C545.956 31.1372 544.947 31.2226 543.819 31.2226ZM556.192 30.838H553.525V13.0943H556.192V30.838ZM562.652 30.838H559.986V13.0943H562.652V30.838ZM571.985 31.2226C570.72 31.2226 569.617 30.9662 568.677 30.4534C567.754 29.9406 567.036 29.1799 566.523 28.1713C566.027 27.1628 565.779 25.932 565.779 24.479C565.779 22.2396 566.301 20.5473 567.343 19.402C568.403 18.2396 569.873 17.6584 571.754 17.6584C573.138 17.6584 574.258 17.9661 575.113 18.5815C575.968 19.1969 576.583 20.0601 576.959 21.1713C577.352 22.2653 577.54 23.5473 577.523 25.0174H567.395L567.318 23.0174H575.472L574.831 23.6585C574.779 22.3422 574.506 21.3849 574.01 20.7866C573.514 20.1712 572.737 19.8635 571.677 19.8635C570.993 19.8635 570.412 20.0088 569.933 20.2994C569.455 20.573 569.087 21.0516 568.831 21.7354C568.591 22.402 568.472 23.3251 568.472 24.5046C568.472 25.9405 568.805 27.0346 569.472 27.7867C570.138 28.5218 571.121 28.8893 572.42 28.8893C573.002 28.8893 573.54 28.838 574.036 28.7354C574.549 28.6329 575.019 28.5047 575.446 28.3508C575.873 28.1799 576.241 28.0175 576.549 27.8636V30.3508C575.95 30.6072 575.275 30.8124 574.523 30.9662C573.771 31.1372 572.925 31.2226 571.985 31.2226ZM580.619 30.838V19.1456C580.841 19.0088 581.251 18.8208 581.85 18.5815C582.448 18.3422 583.157 18.137 583.978 17.9661C584.798 17.7781 585.627 17.684 586.465 17.684C586.892 17.684 587.243 17.7182 587.516 17.7866C587.79 17.855 588.021 17.9319 588.209 18.0174V20.1712C587.816 20.12 587.405 20.0858 586.978 20.0687C586.551 20.0345 586.123 20.0345 585.696 20.0687C585.268 20.0858 584.85 20.12 584.439 20.1712C584.029 20.2225 583.653 20.2738 583.311 20.3251V30.838H580.619ZM590.937 30.838V18.043H593.63L593.655 30.838H590.937ZM590.86 15.9148V13.4789H593.732V15.9148H590.86ZM597.521 19.0174C597.897 18.8293 598.316 18.6584 598.777 18.5046C599.256 18.3336 599.76 18.1883 600.29 18.0687C600.82 17.949 601.359 17.855 601.906 17.7866C602.453 17.7182 602.983 17.684 603.495 17.684C604.709 17.684 605.701 17.855 606.47 18.1969C607.239 18.5217 607.812 19.0345 608.188 19.7353C608.564 20.4191 608.752 21.2824 608.752 22.3251V30.838H606.06V22.6841C606.06 22.3593 606.017 22.0431 605.931 21.7354C605.863 21.4106 605.718 21.12 605.496 20.8636C605.29 20.5901 604.983 20.3764 604.572 20.2225C604.179 20.0687 603.658 19.9918 603.008 19.9918C602.547 19.9918 602.068 20.0345 601.572 20.12C601.094 20.2054 600.641 20.3251 600.213 20.4789V30.838H597.521V19.0174ZM612.622 30.838V18.043H615.315L615.34 30.838H612.622ZM612.545 15.9148V13.4789H615.417V15.9148H612.545ZM626.621 30.838V13.7353H632.621C635.39 13.7353 637.45 14.4532 638.801 15.8892C640.151 17.3251 640.826 19.4533 640.826 22.2738C640.826 25.0944 640.151 27.2311 638.801 28.6841C637.45 30.1201 635.39 30.838 632.621 30.838H626.621ZM629.441 28.4534H632.339C634.253 28.4534 635.664 27.9662 636.57 26.9918C637.476 26.0004 637.929 24.4277 637.929 22.2738C637.929 20.1371 637.476 18.5729 636.57 17.5815C635.664 16.59 634.253 16.0943 632.339 16.0943H629.441V28.4534ZM649.609 31.2226C648.345 31.2226 647.242 30.9662 646.302 30.4534C645.379 29.9406 644.661 29.1799 644.148 28.1713C643.652 27.1628 643.404 25.932 643.404 24.479C643.404 22.2396 643.926 20.5473 644.968 19.402C646.028 18.2396 647.498 17.6584 649.379 17.6584C650.763 17.6584 651.883 17.9661 652.738 18.5815C653.592 19.1969 654.208 20.0601 654.584 21.1713C654.977 22.2653 655.165 23.5473 655.148 25.0174H645.02L644.943 23.0174H653.097L652.456 23.6585C652.404 22.3422 652.131 21.3849 651.635 20.7866C651.139 20.1712 650.362 19.8635 649.302 19.8635C648.618 19.8635 648.037 20.0088 647.558 20.2994C647.08 20.573 646.712 21.0516 646.456 21.7354C646.216 22.402 646.097 23.3251 646.097 24.5046C646.097 25.9405 646.43 27.0346 647.097 27.7867C647.763 28.5218 648.746 28.8893 650.045 28.8893C650.627 28.8893 651.165 28.838 651.661 28.7354C652.174 28.6329 652.644 28.5047 653.071 28.3508C653.498 28.1799 653.866 28.0175 654.174 27.8636V30.3508C653.575 30.6072 652.9 30.8124 652.148 30.9662C651.396 31.1372 650.55 31.2226 649.609 31.2226ZM661.7 30.838L656.29 17.9661H659.162L663.572 28.6585L662.931 28.7354L667.034 17.9661H669.828L664.393 30.838H661.7ZM676.21 31.2226C675.287 31.2226 674.5 31.1201 673.851 30.9149C673.218 30.7269 672.594 30.4876 671.979 30.197V27.6585C672.423 27.932 672.859 28.1799 673.287 28.4021C673.714 28.6072 674.158 28.7696 674.62 28.8893C675.099 29.0089 675.629 29.0688 676.21 29.0688C676.945 29.0688 677.517 28.9149 677.928 28.6072C678.355 28.2995 678.569 27.9149 678.569 27.4534C678.569 27.0602 678.432 26.7525 678.158 26.5303C677.902 26.3081 677.569 26.12 677.158 25.9662C676.748 25.8123 676.321 25.6585 675.876 25.5046C675.415 25.385 674.953 25.2482 674.492 25.0944C674.03 24.9234 673.603 24.7012 673.21 24.4277C672.834 24.1371 672.526 23.7696 672.287 23.3251C672.064 22.8807 671.953 22.3337 671.953 21.6841C671.953 20.9661 672.099 20.3593 672.389 19.8635C672.68 19.3507 673.056 18.9405 673.517 18.6328C673.996 18.308 674.517 18.0772 675.082 17.9405C675.663 17.7866 676.227 17.7097 676.774 17.7097C677.68 17.7268 678.415 17.8379 678.979 18.043C679.56 18.2481 680.124 18.496 680.671 18.7866L680.697 21.0943C680.082 20.7695 679.5 20.4875 678.953 20.2482C678.406 20.0088 677.774 19.8892 677.056 19.8892C676.389 19.8892 675.834 20.0174 675.389 20.2738C674.945 20.5131 674.723 20.8721 674.723 21.3507C674.723 21.761 674.842 22.0858 675.082 22.3251C675.338 22.5644 675.663 22.7525 676.056 22.8892C676.466 23.026 676.902 23.1627 677.364 23.2995C677.791 23.4362 678.235 23.5815 678.697 23.7354C679.158 23.8721 679.586 24.0773 679.979 24.3508C680.372 24.6243 680.688 24.9833 680.928 25.4277C681.184 25.8722 681.312 26.4534 681.312 27.1713C681.295 28.1286 681.039 28.9064 680.543 29.5047C680.064 30.103 679.432 30.5389 678.646 30.8124C677.859 31.0859 677.047 31.2226 676.21 31.2226Z" fill="white"/>
<path d="M50.8475 29.3333C45.6055 29.3333 41.356 25.1546 41.356 20C41.356 14.8453 45.6055 10.6667 50.8475 10.6667C56.0895 10.6667 60.339 14.8453 60.339 20C60.339 25.1546 56.0895 29.3333 50.8475 29.3333ZM50.8475 29.3333V18.6667C50.8475 17.1939 52.0616 16 53.5593 16H54.2373M47.4577 21.3333H54.2373" stroke="#27AE60" stroke-width="2"/>
<g clip-path="url(#clip0_1726_8)">
<path d="M94.8498 12.9305C94.7338 12.928 94.6184 12.936 94.5055 12.9541C93.8284 13.0628 93.2332 13.529 93.0034 14.2049C92.9535 14.3518 92.9084 14.4987 92.871 14.6476C92.2994 14.5961 91.8215 14.5866 91.5253 14.5866C91.2292 14.5866 90.7513 14.5961 90.1797 14.6476C90.1423 14.499 90.0971 14.3524 90.0473 14.2057C89.8175 13.5298 89.2223 13.0636 88.5452 12.9549C88.3195 12.9187 88.0843 12.9227 87.8508 12.9712C86.9144 13.1659 85.5769 13.5438 84.5222 14.3856C84.5109 14.3947 84.4998 14.4042 84.4891 14.4141C84.1563 14.7194 83.9267 15.1317 83.6433 15.7129C83.36 16.2941 83.0661 17.0253 82.7959 17.8589C82.2554 19.526 81.811 21.5991 81.811 23.654C81.8111 23.7615 81.8393 23.8671 81.893 23.9608C82.8868 25.695 85.0446 26.3525 86.3661 26.6146C87.0951 26.7591 87.8461 26.4647 88.2812 25.8716L88.805 25.1571C89.5881 25.3183 90.4945 25.4248 91.5253 25.4248C92.5562 25.4248 93.4626 25.3183 94.2457 25.1571L94.7687 25.8708C95.2036 26.4646 95.9555 26.7583 96.6846 26.6138C98.0061 26.3517 100.163 25.6941 101.157 23.96C101.211 23.8663 101.239 23.7607 101.239 23.6532C101.239 21.5983 100.795 19.5252 100.255 17.8581C99.9846 17.0245 99.6899 16.2933 99.4065 15.7121C99.1232 15.1308 98.8934 14.7186 98.5607 14.4133C98.55 14.4034 98.539 14.3939 98.5276 14.3848C97.473 13.5431 96.136 13.1651 95.199 12.9704C95.0823 12.9461 94.9658 12.933 94.8498 12.9305ZM94.8175 14.1797C94.8564 14.1809 94.8962 14.1853 94.9359 14.1935C95.7639 14.3656 96.9265 14.7322 97.7033 15.3426C97.7555 15.3945 98.0128 15.7447 98.2603 16.2525C98.5121 16.769 98.789 17.4532 99.0432 18.2373C99.5342 19.7517 99.9214 21.6425 99.9486 23.4595C99.2455 24.5109 97.5276 25.1711 96.433 25.3882C96.1909 25.4362 95.9505 25.3445 95.8007 25.14L95.5549 24.8055C95.8093 24.7206 96.0486 24.6325 96.2617 24.5435C97.327 24.0985 97.916 23.6133 97.916 23.6133C97.9796 23.56 98.0318 23.495 98.0698 23.4218C98.1078 23.3487 98.1307 23.2689 98.1373 23.1871C98.1439 23.1053 98.1341 23.0229 98.1083 22.9448C98.0826 22.8667 98.0415 22.7944 97.9873 22.7319C97.9331 22.6694 97.8669 22.6181 97.7926 22.5807C97.7182 22.5434 97.6371 22.5209 97.5538 22.5144C97.4706 22.5079 97.3869 22.5176 97.3075 22.5429C97.228 22.5682 97.1545 22.6087 97.0909 22.662C97.0909 22.662 96.6894 23.0075 95.7651 23.3936C94.8408 23.7796 93.4345 24.1748 91.5253 24.1748C89.6162 24.1748 88.2099 23.7796 87.2856 23.3936C86.3613 23.0075 85.9598 22.662 85.9598 22.662C85.8472 22.5647 85.7033 22.5096 85.5534 22.5065C85.4214 22.5037 85.2918 22.5413 85.1825 22.6143C85.0733 22.6872 84.9898 22.7918 84.9438 22.9135C84.8977 23.0352 84.8914 23.1679 84.9256 23.2933C84.9598 23.4188 85.0329 23.5306 85.1347 23.6133C85.1347 23.6133 85.7237 24.0985 86.789 24.5435C87.0021 24.6325 87.2414 24.7206 87.4958 24.8055L87.25 25.1408C87.0995 25.346 86.8591 25.4378 86.6169 25.3898C85.5223 25.1728 83.8043 24.5117 83.1013 23.4603C83.1284 21.6433 83.5157 19.7526 84.0066 18.2381C84.2608 17.454 84.5386 16.7697 84.7904 16.2533C85.0379 15.7455 85.2946 15.3951 85.3465 15.3434C86.1233 14.733 87.2864 14.3665 88.114 14.1943C88.4311 14.1284 88.7368 14.2941 88.8415 14.6021C88.8687 14.6821 88.8884 14.7561 88.9093 14.8307C87.9621 15.0156 86.9054 15.3365 85.9043 15.9212C85.8296 15.9616 85.7638 16.0163 85.711 16.0822C85.6582 16.1481 85.6194 16.2237 85.597 16.3046C85.5745 16.3855 85.5689 16.47 85.5803 16.5532C85.5918 16.6363 85.6201 16.7163 85.6637 16.7884C85.7072 16.8605 85.7651 16.9232 85.8338 16.9729C85.9026 17.0225 85.9808 17.0581 86.0638 17.0774C86.1467 17.0967 86.2328 17.0994 86.3169 17.0854C86.401 17.0713 86.4813 17.0407 86.5532 16.9955C88.3994 15.9171 90.6811 15.8366 91.5253 15.8366C92.3696 15.8366 94.6513 15.9171 96.4975 16.9955C96.5694 17.0407 96.6497 17.0713 96.7338 17.0854C96.8179 17.0994 96.904 17.0967 96.9869 17.0774C97.0699 17.0581 97.1481 17.0225 97.2169 16.9729C97.2856 16.9232 97.3435 16.8605 97.387 16.7884C97.4306 16.7163 97.4589 16.6363 97.4704 16.5532C97.4818 16.47 97.4762 16.3855 97.4537 16.3046C97.4313 16.2237 97.3925 16.1481 97.3397 16.0822C97.2869 16.0163 97.2211 15.9616 97.1464 15.9212C96.145 15.3364 95.088 15.0155 94.1406 14.8307C94.1615 14.7559 94.1811 14.6815 94.2084 14.6012C94.3 14.3318 94.5451 14.1715 94.8175 14.1797ZM88.786 19.1667C88.3977 19.1686 88.026 19.3433 87.752 19.6525C87.4781 19.9617 87.3243 20.3803 87.3243 20.8167C87.3243 21.253 87.4781 21.6716 87.752 21.9808C88.026 22.29 88.3977 22.4647 88.786 22.4666C89.1743 22.4647 89.546 22.29 89.82 21.9808C90.0939 21.6716 90.2477 21.253 90.2477 20.8167C90.2477 20.3803 90.0939 19.9617 89.82 19.6525C89.546 19.3433 89.1743 19.1686 88.786 19.1667ZM94.2564 19.1667C93.8631 19.1667 93.4859 19.3423 93.2077 19.6548C92.9296 19.9674 92.7734 20.3913 92.7734 20.8333C92.7734 21.2754 92.9296 21.6993 93.2077 22.0119C93.4859 22.3244 93.8631 22.5 94.2564 22.5C94.6497 22.5 95.027 22.3244 95.3051 22.0119C95.5832 21.6993 95.7395 21.2754 95.7395 20.8333C95.7395 20.3913 95.5832 19.9674 95.3051 19.6548C95.027 19.3423 94.6497 19.1667 94.2564 19.1667V19.1667Z" fill="#27AE60"/>
</g>
<path d="M4.23727 12.5C3.30083 12.5 2.54236 13.2458 2.54236 14.1667V25.8333C2.54236 26.7542 3.30083 27.5 4.23727 27.5H16.1017C17.0381 27.5 17.7966 26.7542 17.7966 25.8333V14.1667C17.7966 13.2458 17.0381 12.5 16.1017 12.5H4.23727ZM4.23727 14.1667H16.1017V25.8333H4.23727V14.1667ZM6.59261 15.2637C5.86634 15.2637 5.43067 15.693 5.43067 16.2646C5.43067 16.8363 5.86639 17.264 6.51978 17.264C7.24605 17.264 7.68173 16.8363 7.68173 16.2646C7.68173 15.693 7.246 15.2637 6.59261 15.2637ZM5.4886 18.3333V24.1667H7.6271V18.3333H5.4886ZM9.39154 18.3333V24.1667H11.53V20.9782C11.53 20.029 12.2187 19.8926 12.4255 19.8926C12.6323 19.8926 13.1852 20.0965 13.1852 20.9782V24.1667H15.2542V20.9782C15.2542 19.1474 14.4269 18.3333 13.3921 18.3333C12.3574 18.3333 11.8055 18.6721 11.53 19.1471V18.3333H9.39154Z" fill="#27AE60"/>
<defs>
<clipPath id="clip0_1726_8">
<rect width="20.339" height="20" fill="white" transform="translate(81.3558 10)"/>
</clipPath>
</defs>
</svg>
